<?xml version="1.0" encoding="UTF-8"?>
<svg xmlns="http://www.w3.org/2000/svg" viewBox="0 0 800 800">
  <circle cx="400" cy="400" r="380" fill="#25D366" stroke="#fff" stroke-width="15"/>
  <circle cx="400" cy="400" r="320" fill="#25D366"/>
  <path fill="#fff" d="M549.655 251.532c-40.232-40.167-93.582-62.279-150.354-62.279-117.068 0-212.317 95.214-212.317 212.269 0 37.429 9.76 73.971 28.335 106.28l-30.125 110.108 112.618-29.565c31.205 17.007 66.356 25.981 102.054 25.981h.088c117.047 0 212.383-95.214 212.383-212.279.001-56.7-22.056-110.024-62.154-150.143zm-150.354 326.545h-.071c-31.653 0-62.71-8.501-89.732-24.543l-6.425-3.831-66.658 17.492 17.781-64.963-4.195-6.676c-17.606-27.976-26.893-60.296-26.893-93.551 0-97.235 79.128-176.344 176.518-176.344 47.139 0 91.448 18.391 124.775 51.798 33.328 33.408 51.598 77.782 51.598 124.972-.021 97.315-79.149 176.422-176.698 176.422zm96.856-132.185c-5.312-2.656-31.405-15.494-36.272-17.268-4.866-1.774-8.406-2.656-11.946 2.656-3.54 5.312-13.72 17.268-16.821 20.808-3.102 3.54-6.203 3.985-11.515 1.329-5.312-2.656-22.42-8.267-42.701-26.342-15.779-14.068-26.453-31.45-29.555-36.762-3.102-5.312-.33-8.183 2.327-10.827 2.387-2.376 5.312-6.203 7.968-9.304 2.656-3.102 3.54-5.312 5.313-8.852 1.774-3.54.886-6.642-.443-9.304-1.329-2.656-11.946-28.776-16.376-39.411-4.32-10.372-8.706-8.968-11.946-9.126-3.092-.152-6.642-.188-10.182-.188s-9.304 1.329-14.17 6.642c-4.866 5.312-18.586 18.151-18.586 44.271s19.027 51.358 21.683 54.898c2.656 3.54 37.429 57.151 90.63 80.182 12.661 5.49 22.554 8.77 30.262 11.226 12.708 4.038 24.276 3.467 33.403 2.102 10.191-1.521 31.405-12.841 35.835-25.239 4.431-12.398 4.431-23.034 3.102-25.239-1.329-2.227-4.869-3.539-10.181-6.195z"/>
</svg>