<svg xmlns="http://www.w3.org/2000/svg" viewBox="0 0 200 200" width="24" height="24">
  <circle cx="100" cy="100" r="95" fill="#25D366" stroke="#fff" stroke-width="3"/>
  <path d="M100 20c-44.18 0-80 35.82-80 80s35.82 80 80 80 80-35.82 80-80-35.82-80-80-80zm0 147c-36.97 0-67-30.03-67-67s30.03-67 67-67 67 30.03 67 67-30.03 67-67 67z" fill="#fff"/>
  <path d="M100 42.5c-31.61 0-57.5 25.89-57.5 57.5S68.39 157.5 100 157.5s57.5-25.89 57.5-57.5-25.89-57.5-57.5-57.5zm0 107.5c-27.61 0-50-22.39-50-50s22.39-50 50-50 50 22.39 50 50-22.39 50-50 50z" fill="#fff"/>
  <path d="M85 75c-1.5-3.5-3.5-3.5-5-3.5-1.5 0-3 0-4.5 1.5-1.5 1.5-5.5 5.5-5.5 13s5.5 15 6 16c.5 1.5 7 13.5 17 19 10 5.5 12 5.5 14 5 2-.5 6.5-3 7-6 .5-3 .5-5.5 0-6-.5-.5-2-1-4-2-2-1-12-6-14-6.5-2-.5-3.5-.5-5 .5-1.5 1.5-5.5 7-5.5 14 0 6.5 4 12.5 6.5 15 .5.5 12.5 19.5 31.5 27 5.5 2 10.5 3.5 14 4 4.5.5 9 0 12-3.5 3-3 3-8 2.5-11-.5-3-3-5.5-5.5-6.5-2-1-12-6-14-6.5-2-.5-3.5-.5-5 .5-1.5 1.5-5.5 7-5.5 14 0 6.5 4 12.5 6.5 15 .5.5 12.5 19.5 31.5 27" fill="none" stroke="#fff" stroke-width="2" stroke-linecap="round" stroke-linejoin="round"/>
</svg>